PathFileType	4	(X/Y/Z)	output.trc
DataRate	CameraRate	NumFrames	NumMarkers	Units	OrigDataRate	OrigDataStartFrame	OrigNumFrames
120	120	8	17	m	120	2799	4477
Frame#	Time	Elbow_Midpoint			GH			Wrist_Midpoint			US			RS			C7			EM			EL			T8			SC			AC			AI			TS			AA			IJx			PX00			PC
		X1	Y1	Z1	X2	Y2	Z2	X3	Y3	Z3	X4	Y4	Z4	X5	Y5	Z5	X6	Y6	Z6	X7	Y7	Z7	X8	Y8	Z8	X9	Y9	Z9	X10	Y10	Z10	X11	Y11	Z11	X12	Y12	Z12	X13	Y13	Z13	X14	Y14	Z14	X15	Y15	Z15	X16	Y16	Z16	X17	Y17	Z17
2798	23.316667	0.361228	1.036190	-0.291802	0.327332	1.203734	-0.496244	0.442650	0.894358	-0.130317	0.452739	0.912620	-0.121237	0.432562	0.876095	-0.139397	0.163466	1.313392	-0.509001	0.329741	1.051927	-0.274948	0.388241	1.038875	-0.276104	0.144503	1.097343	-0.405318	0.178972	1.209253	-0.557331	0.293002	1.247072	-0.516181	0.188667	1.144625	-0.399753	0.208821	1.288019	-0.469399	0.336133	1.229126	-0.493728	0.166286	1.211279	-0.562379	0.159001	1.019234	-0.583494	0.283481	1.207476	-0.529165
2799	23.325000	0.361299	1.036488	-0.291952	0.327362	1.203921	-0.496435	0.442552	0.894849	-0.130212	0.452702	0.913107	-0.121193	0.432402	0.876591	-0.139232	0.163381	1.313384	-0.509153	0.329713	1.052278	-0.275025	0.388203	1.039184	-0.276185	0.144661	1.097352	-0.405389	0.178961	1.209242	-0.557454	0.292895	1.247245	-0.516344	0.188564	1.144927	-0.399798	0.208756	1.288264	-0.469551	0.336028	1.229293	-0.493899	0.166271	1.211256	-0.562497	0.159152	1.019196	-0.583545	0.283349	1.207644	-0.529297
2800	23.333333	0.361353	1.036742	-0.292121	0.327382	1.204098	-0.496626	0.442431	0.895256	-0.130160	0.452661	0.913503	-0.121208	0.432201	0.877009	-0.139112	0.163300	1.313379	-0.509292	0.329684	1.052578	-0.275131	0.388163	1.039438	-0.276302	0.144802	1.097358	-0.405466	0.178939	1.209238	-0.557575	0.292798	1.247381	-0.516519	0.188527	1.145192	-0.399807	0.208699	1.288460	-0.469708	0.335943	1.229441	-0.494087	0.166245	1.211240	-0.562613	0.159269	1.019170	-0.583610	0.283236	1.207770	-0.529429
2801	23.341667	0.361401	1.036953	-0.292316	0.327391	1.204262	-0.496816	0.442289	0.895593	-0.130149	0.452613	0.913824	-0.121272	0.431965	0.877363	-0.139026	0.163224	1.313383	-0.509425	0.329652	1.052826	-0.275264	0.388122	1.039641	-0.276449	0.144921	1.097370	-0.405547	0.178907	1.209243	-0.557696	0.292717	1.247487	-0.516712	0.188546	1.145402	-0.399819	0.208645	1.288601	-0.469882	0.335881	1.229577	-0.494292	0.166209	1.211236	-0.562727	0.159348	1.019157	-0.583683	0.283152	1.207861	-0.529574
2802	23.350000	0.361454	1.037126	-0.292538	0.327392	1.204412	-0.497006	0.442129	0.895871	-0.130175	0.452554	0.914082	-0.121375	0.431704	0.877661	-0.138974	0.163156	1.313398	-0.509553	0.329619	1.053027	-0.275419	0.388079	1.039801	-0.276619	0.145015	1.097392	-0.405632	0.178867	1.209258	-0.557816	0.292653	1.247565	-0.516917	0.188615	1.145548	-0.399846	0.208590	1.288684	-0.470075	0.335841	1.229702	-0.494507	0.166165	1.211243	-0.562841	0.159391	1.019157	-0.583763	0.283100	1.207920	-0.529730
2803	23.358333	0.361503	1.037269	-0.292776	0.327385	1.204543	-0.497197	0.441964	0.896089	-0.130242	0.452488	0.914277	-0.121514	0.431440	0.877900	-0.138969	0.163091	1.313420	-0.509680	0.329584	1.053186	-0.275590	0.388036	1.039925	-0.276805	0.145088	1.097421	-0.405720	0.178818	1.209280	-0.557936	0.292603	1.247618	-0.517124	0.188723	1.145636	-0.399882	0.208530	1.288712	-0.470279	0.335820	1.229819	-0.494719	0.166114	1.211259	-0.562955	0.159404	1.019168	-0.583848	0.283079	1.207951	-0.529889
2804	23.366667	0.361518	1.037389	-0.293004	0.327369	1.204653	-0.497388	0.441814	0.896239	-0.130361	0.452423	0.914406	-0.121692	0.431205	0.878072	-0.139031	0.163029	1.313447	-0.509806	0.329549	1.053307	-0.275772	0.387995	1.040020	-0.277000	0.145144	1.097454	-0.405814	0.178763	1.209307	-0.558059	0.292563	1.247651	-0.517321	0.188858	1.145676	-0.399920	0.208465	1.288699	-0.470481	0.335812	1.229926	-0.494918	0.166056	1.211282	-0.563072	0.159394	1.019187	-0.583941	0.283079	1.207959	-0.530038
2805	23.375000	0.361466	1.037491	-0.293195	0.327343	1.204743	-0.497574	0.441698	0.896315	-0.130543	0.452368	0.914465	-0.121912	0.431029	0.878165	-0.139174	0.162966	1.313475	-0.509928	0.329516	1.053397	-0.275960	0.387957	1.040090	-0.277199	0.145190	1.097482	-0.405915	0.178703	1.209335	-0.558183	0.292529	1.247668	-0.517501	0.189003	1.145682	-0.399951	0.208396	1.288656	-0.470669	0.335809	1.230023	-0.495096	0.165992	1.211307	-0.563190	0.159370	1.019209	-0.584045	0.283091	1.207950	-0.530172
